<?xml version="1.0" encoding="utf-8"?>
<!-- Generator: Adobe Illustrator 14.0.0, SVG Export Plug-In . SVG Version: 6.00 Build 43363)  -->
<!DOCTYPE svg PUBLIC "-//W3C//DTD SVG 1.1//EN" "http://www.w3.org/Graphics/SVG/1.1/DTD/svg11.dtd">
<svg version="1.1" id="Layer_1" xmlns="http://www.w3.org/2000/svg" xmlns:xlink="http://www.w3.org/1999/xlink" x="0px" y="0px"
	 width="360px" height="160px" viewBox="0 0 360 160" enable-background="new 0 0 360 160" xml:space="preserve">
<path fill="#579170" d="M168.643,47.967c0-3.097,0-6.199-1.548-7.747c-1.553-3.101-1.553-4.649-3.101-7.751
	c-3.101-3.101-6.196-6.197-12.398-9.299c-4.65-1.547-10.848-4.648-18.599-6.197c-6.197-1.553-13.948-3.101-21.695-3.101
	c-7.75-1.549-15.501-1.549-23.246-1.549l0,0c-7.75,0-13.949,0-21.699,1.549c-7.751,1.548-13.949,1.548-18.599,4.649
	c-3.101,1.547-6.197,1.547-7.75,3.101c-3.097,1.547-4.649,3.096-7.746,4.649c-3.102,1.548-4.65,4.649-6.203,6.197
	c-1.548,3.102-3.096,6.199-3.096,9.299l0,0l0,0c-1.553,7.751-1.553,17.05-1.553,24.794c0,9.3,1.553,17.05,3.101,24.805
	c1.548,7.739,6.198,15.493,9.299,23.248c4.649,7.737,9.299,12.387,15.496,17.036c4.65,3.104,10.853,6.212,18.599,7.756
	c6.202,1.543,13.949,1.543,21.699,1.543c7.751,0,15.496,0,21.697-1.543c7.747-1.544,13.949-4.651,18.599-7.756
	c4.65-3.087,10.848-7.735,15.498-13.949c4.65-4.646,7.751-10.842,10.845-17.035c3.102-6.21,4.65-10.861,7.751-18.603
	c1.548-6.202,3.101-12.4,4.649-17.048C168.643,60.367,168.643,54.169,168.643,47.967z M123.698,123.916
	c-7.746,4.648-21.695,7.735-34.094,7.735c-13.949,0-27.897-3.087-34.096-7.735C33.81,109.967,27.612,74.313,32.262,44.87
	c3.097-15.501,27.896-20.151,55.794-20.151c29.444,0,61.992,6.202,68.187,15.501C163.994,49.519,154.697,103.755,123.698,123.916z"
	/>
<path fill="#579170" d="M339.677,41.568L339.677,41.568L339.677,41.568c0-3.101-1.541-6.198-3.104-9.299
	c-1.543-3.101-3.088-4.649-6.192-6.197c-1.545-1.553-4.65-3.102-7.755-4.649c-3.09-1.554-4.649-3.101-7.739-3.101
	c-6.21-1.548-12.404-3.102-18.596-4.649c-6.213-1.549-13.949-1.549-21.704-1.549c-7.757,0-15.492,0-23.248,1.549
	c-7.755,1.548-15.493,1.548-21.703,3.101c-7.737,1.548-12.386,3.096-18.599,6.197c-6.192,3.102-10.841,6.198-12.386,9.299
	c-1.562,1.549-3.104,4.65-3.104,7.751c0,3.097-1.545,4.65-1.545,7.747c0,6.202,0,12.4,1.545,18.596
	c1.543,6.203,3.104,12.4,4.649,17.051c1.542,6.193,4.648,12.405,7.754,18.599c3.087,6.194,6.194,12.404,10.842,17.055
	c4.648,4.65,9.3,9.299,15.493,13.948c4.649,3.086,10.86,6.193,18.599,7.736c6.211,1.563,13.946,1.563,21.703,1.563
	c7.755,0,15.491-1.563,21.704-1.563c7.736-1.543,13.947-4.65,18.596-7.736c6.194-4.649,10.844-10.861,15.494-17.054
	c4.649-6.193,7.756-13.949,9.297-23.247c1.544-7.752,3.107-15.5,3.107-24.796C341.221,58.618,341.221,50.867,339.677,41.568z
	 M305.588,123.717c-6.211,6.19-20.16,7.735-34.109,7.735c-13.946,0-26.334-3.087-34.09-7.735
	c-31.003-20.161-40.3-74.398-31.003-85.25c6.214-9.299,37.197-15.498,68.2-15.498c27.896,0,52.686,6.198,55.794,20.146
	C335.029,72.565,327.271,108.206,305.588,123.717z"/>
<path fill="#579170" d="M21.864,52.616c-1.549-4.649-4.65-7.747-10.848-9.3c-1.553,0-3.102-1.548-3.102-3.097V24.718
	c0-1.548,1.549-3.096,3.102-3.096c15.496-3.101,30.993-6.203,44.941-6.203C37.36,26.271,28.061,40.22,21.864,52.616z"/>
<path fill="#579170" d="M321.5,31c8.369,6.698,12.703,14.982,16.271,21.585c1.684-4.936,5.08-8.25,11.971-9.973
	c1.717-0.02,3.416-1.677,3.398-3.314l-0.19-16.39c-0.02-1.637-1.758-3.253-3.475-3.233C325.164,15.346,299.249,13.904,291,14
	C301.271,19.54,313.356,24.483,321.5,31z"/>
<path fill="#579170" d="M196.343,71.212c-6.194-24.794-23.25-26.343-29.448,0c4.65-18.596,0-35.642-20.149-49.59
	c21.697,4.649,44.946,4.649,68.195,0C199.447,37.119,194.798,54.169,196.343,71.212z"/>
</svg>
